<?xml version="1.0" encoding="UTF-8" standalone="no"?>
<!-- Created with Inkscape (http://www.inkscape.org/) -->

<svg
   version="1.1"
   id="svg1"
   width="597.32935"
   height="667.55902"
   viewBox="0 0 597.32945 667.55902"
   sodipodi:docname="logo.svg"
   inkscape:version="1.4.2 (ebf0e940d0, 2025-05-08)"
   xmlns:inkscape="http://www.inkscape.org/namespaces/inkscape"
   xmlns:sodipodi="http://sodipodi.sourceforge.net/DTD/sodipodi-0.dtd"
   xmlns="http://www.w3.org/2000/svg"
   xmlns:svg="http://www.w3.org/2000/svg">
  <defs
     id="defs1" />
  <sodipodi:namedview
     id="namedview1"
     pagecolor="#ffffff"
     bordercolor="#000000"
     borderopacity="0.25"
     inkscape:showpageshadow="2"
     inkscape:pageopacity="0.0"
     inkscape:pagecheckerboard="0"
     inkscape:deskcolor="#d1d1d1"
     inkscape:zoom="0.65917969"
     inkscape:cx="72.817778"
     inkscape:cy="274.5837"
     inkscape:window-width="3830"
     inkscape:window-height="1566"
     inkscape:window-x="0"
     inkscape:window-y="0"
     inkscape:window-maximized="1"
     inkscape:current-layer="g1" />
  <g
     inkscape:groupmode="layer"
     inkscape:label="Image"
     id="g1"
     transform="translate(-186.81733,-196.93932)">
    <g
       id="g9"
       transform="translate(11.185024,12.500095)">
      <path
         id="path9"
         style="fill:none;fill-opacity:1;stroke:#f2f2f2;stroke-width:40;stroke-linecap:round;stroke-linejoin:round;stroke-dasharray:none;stroke-opacity:1"
         d="m 474.21953,216.93908 v 0.0969 c -80.09982,52.10473 -176.65939,64.85533 -267.06764,80.15863 9.81715,293.94517 -58.85997,372.63947 266.6569,522.30354 h 0.97642 C 800.30208,669.83412 731.62496,591.13982 741.44201,297.19465 651.03386,281.89135 554.4763,269.14075 474.37648,217.03602 v -0.0969 c -0.0264,0.0171 -0.0518,0.0345 -0.0783,0.0516 -0.0264,-0.017 -0.0518,-0.0346 -0.0783,-0.0516 z"
         sodipodi:nodetypes="cccccccccc" />
      <path
         id="path3"
         style="fill:#f2f2f2;fill-opacity:1;stroke:#1a1a1a;stroke-width:40;stroke-linecap:round;stroke-linejoin:round;stroke-dasharray:none;stroke-opacity:1"
         d="m 474.98223,235.1534 v 0.0918 c -75.7816,49.34822 -167.1356,61.42427 -252.6699,75.91797 9.2879,278.39446 -55.6868,352.92555 252.2813,494.67187 h 0.9238 c 307.9681,-141.74632 242.9934,-216.27741 252.2812,-494.67187 -85.5342,-14.4937 -176.8863,-26.56975 -252.6679,-75.91797 v -0.0918 c -0.025,0.0162 -0.049,0.0327 -0.074,0.0488 -0.025,-0.0162 -0.049,-0.0327 -0.074,-0.0488 z"
         sodipodi:nodetypes="cccccccccc" />
      <path
         style="fill:#0e7cb3;fill-opacity:1;stroke:none;stroke-width:4.7;stroke-dasharray:none"
         d="m 456.33243,659.97402 c -3.7246,0 -9.7454,0.16958 -13.4514,0.16958 0,-3.91546 0.1685,-10.38037 0.1642,-13.46546 -0.01,-7.36389 -0.4583,-15.07577 -1.034,-22.43678 -2.0049,-25.63217 -6.9456,-53.59669 -21.088,-76.45124 -13.1646,-21.27453 -38.2227,-37.9461 -67.0923,-34.6612 -18.5106,2.10619 -50.2706,19.39325 -41.5094,39.63432 1.7718,4.09344 6.5316,5.96925 11.1386,4.02161 5.2259,-2.20929 9.1673,-6.54862 14.2363,-9.09475 12.155,-6.10543 26.1237,-4.65496 37.9635,1.28753 40.9255,20.54061 51.2223,73.27289 51.2508,110.99639 -18.1089,0 -36.0905,0.0145 -54.098,1.52088 -6.5824,0.55071 -15.798,-0.43913 -19.9222,5.17259 -7.9612,10.83293 12.801,23.29151 20.8713,28.86409 20.3889,14.07883 42.3155,25.16387 65.4871,35.28195 10.9057,4.76208 23.6583,10.59637 36.0653,10.59637 12.4882,0 25.0948,-5.80599 36.0654,-10.59637 23.0382,-10.05994 45.4394,-21.047 65.4871,-35.32359 7.7193,-5.49716 28.7979,-18.27705 20.8711,-28.78074 -4.106,-5.44077 -13.4079,-4.74783 -19.922,-5.14756 -18.0665,-1.10873 -35.947,-1.58762 -54.0981,-1.58762 1.7434,-35.55788 8.0444,-80.93345 41.7599,-105.14994 12.8026,-9.19558 29.8041,-14.95557 45.5563,-7.88037 5.9412,2.66861 10.6931,9.02857 17.0835,10.45409 6.4339,1.43522 10.4692,-3.80768 11.0661,-8.77669 1.0107,-8.41242 -5.5815,-17.568 -12.0532,-23.23445 -22.9393,-20.08485 -59.919,-13.87589 -81.5697,4.19599 -37.9445,31.67239 -37.0283,88.23638 -37.0283,130.39137 h -12.9637 c 2.3653,-53.07424 -3.5587,-114.67069 35.8927,-162.04341 12.5061,-15.01714 35.0867,-30.87974 57.7435,-24.01477 8.868,2.68698 14.1287,8.49647 21.8291,12.59503 5.208,2.77208 11.0708,-0.13507 12.1213,-5.20075 2.9101,-14.03238 -12.8689,-27.06511 -25.4086,-32.98187 -29.3865,-13.86585 -64.0361,-1.28022 -83.0423,20.51764 -20.3429,23.33103 -26.9099,52.10143 -30.0604,80.60622 -4.0518,36.66066 -2.6861,73.6717 -2.6861,110.52191 h -13.2872 c 0,-34.36667 0.8798,-68.80277 -1.8132,-103.04299 -2.3282,-29.60054 -7.9477,-60.92118 -28.316,-85.59217 -18.4664,-22.36744 -50.341,-35.58443 -80.9141,-24.7579 -14.4878,5.13035 -32.1289,18.66896 -30.2669,33.89881 0.6184,5.05763 5.7114,8.65209 11.2851,6.169 7.6042,-3.38767 12.5257,-9.62032 20.8799,-12.23538 22.6505,-7.09015 45.587,6.486 58.9394,21.85524 38.8949,44.77009 35.2635,110.61113 37.8676,163.70539 z"
         id="path6"
         sodipodi:nodetypes="cccssssssscssssssssscssssssccsssssssccsssssssc" />
      <path
         style="fill:#0e7cb3;fill-opacity:1;stroke:none;stroke-width:4.7;stroke-dasharray:none"
         d="m 475.6785,319.0901 c -7.0389,8.49532 -10.7328,20.37691 -15.1094,30.43836 -12.1195,27.86129 -38.1303,80.9007 -0.8333,102.13784 20.5546,11.70386 42.8097,-2.9516 48.1772,-23.86779 5.0709,-19.76003 -1.4026,-41.44465 -9.4861,-59.42726 -7.355,-16.36155 -13.7295,-33.77075 -22.7484,-49.28115"
         id="path7"
         sodipodi:nodetypes="cssssc" />
    </g>
  </g>
</svg>
